<svg xmlns="http://www.w3.org/2000/svg" xmlns:xlink="http://www.w3.org/1999/xlink" viewBox="0 0 773 200"><defs><linearGradient id="a"><stop offset="0" stop-color="#ffb16c"/><stop offset="1" stop-color="#ff9daf"/></linearGradient><linearGradient xlink:href="#a" id="b" x1="5" x2="18" y1="4" y2="16.59" gradientUnits="userSpaceOnUse"/><linearGradient xlink:href="#a" id="e" x1="5" x2="18" y1="4" y2="16.59" gradientUnits="userSpaceOnUse"/><linearGradient xlink:href="#a" id="f" x1="5" x2="18" y1="4" y2="16.59" gradientUnits="userSpaceOnUse"/><linearGradient xlink:href="#a" id="d" x1="5" x2="18" y1="4" y2="16.59" gradientUnits="userSpaceOnUse"/><filter id="c" width="1.09" height="1.1" x="-.04" y="-.04" color-interpolation-filters="sRGB"><feFlood flood-color="#000" flood-opacity=".22" result="flood"/><feComposite in="flood" in2="SourceGraphic" operator="in" result="composite1"/><feGaussianBlur in="composite1" result="blur" stdDeviation=".3"/><feOffset dy=".5" result="offset"/><feComposite in="SourceGraphic" in2="offset" result="composite2"/></filter></defs><rect width="773" height="200" fill="#1e2133" stroke="#000" stroke-linecap="square" stroke-width=".5" rx="22.68" ry="22.68"/><g fill="url(#b)" filter="url(#c)" transform="translate(192.95 53.33) scale(3.25431)"><g fill="url(#d)" transform="translate(-1.3 -1.05) scale(1.26139)"><rect width="4" height="16" x="5" y="4" fill="url(#e)" rx="2" ry="2"/><path fill="url(#f)" d="M16 4a2.2 2.2 0 0 0-1.3.5L10 9v5.5l7.5-7a2.2 2.2 0 0 0-.1-2.9 2.2 2.2 0 0 0-1.6-.6Zm-3 9-3 3 1 1 2.5 2.5a2.2 2.2 0 0 0 2.9-.1 2.2 2.2 0 0 0 .1-2.9z"/></g></g><g fill="#fff"><path d="M309.52 98.89q-1.2 0-1.92-.98l-9.86-12.97 3.88-3.97 10.2 13.48q.6.81.6 1.75 0 1.2-.9 1.96-.9.73-2 .73zm.51-30.08q1.02 0 1.66.85.69.81.69 1.67 0 .9-.77 1.66L293.73 90.1l-.21-6.1 14.42-14.2q.98-.99 2.09-.99zM291.6 98.89q-1.2 0-1.92-.73-.73-.76-.73-1.87V71.63q0-1.11.77-1.84.77-.77 1.96-.77 1.2 0 1.88.77.73.73.73 1.84v24.66q0 1.1-.73 1.87-.72.73-1.96.73zm43.35-23.25q1.1 0 1.83.72.73.73.73 1.88v18.05q0 1.1-.73 1.87-.72.73-1.83.73t-1.84-.73q-.72-.76-.72-1.87v-2.1l.94.39q0 .56-.6 1.37-.6.76-1.62 1.53-1.03.77-2.43 1.32-1.37.52-3 .52-2.93 0-5.32-1.5-2.4-1.53-3.8-4.18-1.37-2.69-1.37-6.14 0-3.5 1.37-6.15 1.4-2.68 3.75-4.18 2.35-1.53 5.2-1.53 1.84 0 3.38.55 1.54.56 2.64 1.4 1.16.86 1.75 1.76.64.85.64 1.45l-1.53.55v-3.11q0-1.11.72-1.84.73-.76 1.84-.76zm-8.62 18.98q1.88 0 3.28-.94 1.41-.93 2.18-2.56.81-1.62.81-3.62 0-2.05-.81-3.67-.77-1.62-2.18-2.56-1.4-.94-3.28-.94-1.84 0-3.24.94-1.41.94-2.22 2.56-.77 1.62-.77 3.67 0 2 .77 3.62.8 1.63 2.22 2.56 1.4.94 3.24.94zm21.55 1.67q0 1.1-.73 1.87-.73.73-1.83.73-1.11 0-1.84-.73-.72-.76-.72-1.87V78.67q0-1.11.72-1.84.73-.77 1.84-.77 1.1 0 1.83.77.73.73.73 1.84zm-2.6-23q-1.46 0-2.06-.47-.6-.47-.6-1.66v-.81q0-1.24.65-1.67.68-.47 2.05-.47 1.49 0 2.09.47.6.47.6 1.67v.8q0 1.24-.65 1.71-.64.43-2.09.43zm8.1 3.2h10.11q1.03 0 1.7.68.7.69.7 1.7 0 .99-.7 1.67-.67.64-1.7.64h-10.11q-1.02 0-1.7-.68-.69-.68-.69-1.7 0-.99.68-1.63.69-.68 1.71-.68zm4.57-5.33q1.1 0 1.79.76.72.73.72 1.84v18.99q0 .6.22.98.25.38.64.55.42.17.9.17.5 0 .93-.17.43-.21.98-.21.6 0 1.07.55.51.56.51 1.54 0 1.2-1.32 1.96-1.28.77-2.78.77-.9 0-2-.13-1.07-.17-2.05-.72-.94-.6-1.58-1.8-.64-1.19-.64-3.28v-19.2q0-1.11.73-1.84.77-.76 1.88-.76zm22.95 28.16q-3.63 0-6.31-1.5-2.65-1.53-4.1-4.14-1.4-2.6-1.4-5.88 0-3.84 1.53-6.53 1.58-2.73 4.1-4.18 2.51-1.45 5.33-1.45 2.17 0 4.1.9 1.96.89 3.45 2.47 1.5 1.53 2.35 3.58.9 2.05.9 4.35-.05 1.03-.82 1.67-.77.64-1.8.64h-16.29l-1.28-4.27h15.66l-.94.85v-1.15q-.09-1.24-.9-2.22-.76-.98-1.96-1.53-1.15-.6-2.47-.6-1.28 0-2.4.34-1.1.34-1.91 1.15-.81.81-1.28 2.18-.47 1.36-.47 3.46 0 2.3.94 3.92.98 1.58 2.47 2.43 1.54.81 3.24.81 1.58 0 2.52-.25.94-.26 1.5-.6.6-.38 1.06-.64.77-.38 1.45-.38.94 0 1.54.64.64.64.64 1.49 0 1.15-1.2 2.09-1.1.94-3.11 1.66-2 .69-4.14.69zm17.2-.43q-1.11 0-1.84-.73-.73-.76-.73-1.87V69.92q0-1.11.73-1.84.73-.76 1.83-.76 1.11 0 1.84.76.72.73.72 1.84v26.37q0 1.1-.72 1.87-.73.73-1.84.73zm13.56-22.83q.98 0 1.7.81.73.81.73 1.58 0 1.03-1.02 1.92L400.23 92.2l-.23-5.9 9.78-9.43q.8-.8 1.87-.8zm.64 22.79q-1.1 0-1.87-.86l-7.9-8.36 3.88-3.58 7.68 8.36q.82.85.82 1.92 0 1.1-.9 1.83-.85.69-1.7.69zm11.9-2.56q0 1.1-.72 1.87-.72.73-1.83.73t-1.84-.73q-.72-.76-.72-1.87V78.67q0-1.11.72-1.84.73-.77 1.84-.77 1.1 0 1.83.77.73.73.73 1.84zm-2.6-23q-1.45 0-2.04-.47-.6-.47-.6-1.66v-.81q0-1.24.64-1.67.68-.47 2.05-.47 1.49 0 2.09.47.6.47.6 1.67v.8q0 1.24-.65 1.71-.64.43-2.09.43z" aria-label="Kaiteki" font-family="Quicksand" font-size="42.67" font-weight="700" style="-inkscape-font-specification:'Quicksand Bold'"/><path fill-opacity=".6" d="M302.15 112.35h-5.49v15.21h-2.23v-15.2h-5.48v-1.86h13.2zm4.35 4.07q1.45-1.77 3.76-1.77 4.02 0 4.05 4.53v8.38h-2.17v-8.39q0-1.37-.63-2.03-.6-.65-1.9-.65-1.06 0-1.86.56t-1.24 1.48v9.03h-2.17v-18h2.17zm16.32 11.38q-2.58 0-4.2-1.7-1.61-1.69-1.61-4.53v-.4q0-1.88.71-3.36.73-1.49 2.02-2.32 1.3-.84 2.81-.84 2.47 0 3.84 1.63 1.38 1.63 1.38 4.66v.9h-8.6q.05 1.88 1.1 3.04 1.05 1.15 2.67 1.15 1.15 0 1.94-.47.8-.47 1.4-1.24l1.32 1.03q-1.6 2.45-4.78 2.45zm-.27-11.37q-1.31 0-2.2.96-.9.95-1.1 2.67h6.35v-.16q-.1-1.65-.9-2.56-.79-.91-2.15-.91zm18.75 9.6q1.16 0 2.03-.7.87-.7.96-1.76h2.05q-.06 1.09-.75 2.07-.7.99-1.85 1.57-1.15.59-2.44.59-2.59 0-4.12-1.73-1.53-1.73-1.53-4.73v-.36q0-1.85.68-3.3.68-1.44 1.95-2.23 1.27-.8 3-.8 2.14 0 3.55 1.28 1.42 1.27 1.51 3.31h-2.05q-.1-1.23-.94-2.01-.83-.8-2.06-.8-1.65 0-2.57 1.2-.9 1.18-.9 3.43v.4q0 2.2.9 3.38.9 1.19 2.58 1.19zm6.9-4.93q0-1.86.73-3.35.74-1.48 2.04-2.3 1.31-.8 2.99-.8 2.59 0 4.18 1.8 1.6 1.78 1.6 4.76v.15q0 1.85-.7 3.33-.71 1.47-2.04 2.29-1.3.82-3.02.82-2.58 0-4.18-1.8-1.6-1.79-1.6-4.74zm2.18.26q0 2.11.98 3.39.98 1.28 2.62 1.28 1.65 0 2.63-1.3.97-1.3.97-3.62 0-2.09-1-3.38-.98-1.3-2.62-1.3-1.6 0-2.6 1.28-.98 1.27-.98 3.65zm14.12-6.48.06 1.4q1.4-1.63 3.76-1.63 2.66 0 3.63 2.04.63-.92 1.64-1.48 1.02-.56 2.4-.56 4.17 0 4.24 4.42v8.5h-2.17v-8.37q0-1.36-.62-2.03-.62-.68-2.08-.68-1.21 0-2 .72-.8.72-.93 1.94v8.41h-2.18v-8.3q0-2.77-2.71-2.77-2.13 0-2.92 1.81v9.26h-2.17v-12.68zm20.07 12.68v-11h-2v-1.68h2v-1.3q0-2.04 1.09-3.15 1.09-1.11 3.08-1.11.75 0 1.49.2l-.12 1.75q-.55-.1-1.17-.1-1.06 0-1.63.62-.58.6-.58 1.76v1.33h2.71v1.68h-2.7v11zm11.41-3.17 2.95-9.5h2.32l-5.1 14.63q-1.18 3.16-3.76 3.16l-.4-.03-.81-.15v-1.76l.58.05q1.1 0 1.71-.45.62-.45 1.02-1.63l.48-1.29-4.52-12.54h2.37zm22.9-4.36h-7.16v7.53h-2.25V110.5h10.57v1.85h-8.32v5.84h7.16zm8.78 7.77q-2.58 0-4.2-1.7-1.62-1.69-1.62-4.53v-.4q0-1.88.72-3.36.72-1.49 2.01-2.32 1.3-.84 2.82-.84 2.47 0 3.84 1.63 1.37 1.63 1.37 4.66v.9h-8.59q.05 1.88 1.1 3.04 1.05 1.15 2.66 1.15 1.15 0 1.95-.47t1.4-1.24l1.32 1.03q-1.6 2.45-4.78 2.45zm-.27-11.37q-1.32 0-2.2.96-.9.95-1.1 2.67h6.34v-.16q-.09-1.65-.89-2.56-.8-.91-2.15-.91zm7.19 4.69q0-2.92 1.38-4.69 1.39-1.78 3.63-1.78 2.22 0 3.52 1.52v-6.6h2.17v18h-2l-.1-1.37q-1.3 1.6-3.62 1.6-2.2 0-3.6-1.8-1.38-1.81-1.38-4.72zm2.17.24q0 2.16.89 3.38.9 1.22 2.46 1.22 2.06 0 3.01-1.85v-5.83q-.97-1.8-2.99-1.8-1.59 0-2.48 1.24-.89 1.23-.89 3.64zm14.25 6.2h-2.17v-12.68H451zm-2.34-16.04q0-.53.31-.9.33-.35.96-.35.64 0 .96.36.33.36.33.89t-.33.88q-.32.35-.96.35-.63 0-.96-.35-.31-.35-.31-.88zm9.99 13.1 3.14-9.74h2.22l-4.55 12.68h-1.65l-4.6-12.68h2.22zm12.71 3.18q-2.58 0-4.2-1.7-1.62-1.69-1.62-4.53v-.4q0-1.88.72-3.36.72-1.49 2.01-2.32 1.3-.84 2.82-.84 2.47 0 3.84 1.63 1.37 1.63 1.37 4.66v.9h-8.59q.05 1.88 1.1 3.04 1.05 1.15 2.66 1.15 1.15 0 1.95-.47t1.4-1.24l1.32 1.03q-1.6 2.45-4.78 2.45zm-.27-11.37q-1.32 0-2.2.96-.9.95-1.1 2.67h6.34v-.16q-.1-1.65-.89-2.56-.8-.91-2.15-.91zm13.85.4q-.5-.08-1.07-.08-2.13 0-2.9 1.81v9h-2.16v-12.68h2.1l.04 1.47q1.07-1.7 3.03-1.7.63 0 .96.16zm9.37 7.37q0-.88-.67-1.36-.65-.5-2.3-.84-1.64-.36-2.62-.85-.96-.49-1.43-1.17-.45-.68-.45-1.62 0-1.56 1.3-2.63 1.33-1.08 3.38-1.08 2.16 0 3.5 1.11 1.34 1.12 1.34 2.85h-2.18q0-.9-.76-1.54-.75-.64-1.9-.64-1.18 0-1.85.52-.67.51-.67 1.34 0 .79.62 1.19.63.4 2.24.76 1.63.36 2.64.87 1 .5 1.49 1.21.49.7.49 1.73 0 1.7-1.36 2.73-1.36 1.02-3.53 1.02-1.52 0-2.7-.54-1.16-.54-1.83-1.5-.66-.97-.66-2.1h2.17q.06 1.09.87 1.73.82.64 2.15.64 1.23 0 1.97-.5.75-.5.75-1.33zm10.26 3.6q-2.58 0-4.2-1.7-1.62-1.69-1.62-4.53v-.4q0-1.88.72-3.36.73-1.49 2.01-2.32 1.3-.84 2.82-.84 2.47 0 3.84 1.63 1.37 1.63 1.37 4.66v.9h-8.59q.05 1.88 1.1 3.04 1.05 1.15 2.66 1.15 1.15 0 1.95-.47t1.4-1.24l1.32 1.03q-1.6 2.45-4.78 2.45zm-.27-11.37q-1.32 0-2.2.96-.9.95-1.1 2.67h6.34v-.16q-.09-1.65-.89-2.56-.8-.91-2.15-.91zm18.75 9.6q1.16 0 2.02-.7.87-.7.96-1.76h2.06q-.06 1.09-.75 2.07-.7.99-1.86 1.57-1.14.59-2.43.59-2.6 0-4.13-1.73-1.52-1.73-1.52-4.73v-.36q0-1.85.68-3.3.68-1.44 1.94-2.23 1.28-.8 3.01-.8 2.14 0 3.54 1.28 1.42 1.27 1.52 3.31h-2.06q-.09-1.23-.93-2.01-.83-.8-2.07-.8-1.65 0-2.56 1.2-.9 1.18-.9 3.43v.4q0 2.2.9 3.38.9 1.19 2.58 1.19zm9.83 1.53h-2.17v-18h2.17zm5.82 0h-2.17v-12.68h2.17zm-2.34-16.04q0-.53.32-.9.32-.35.96-.35.63 0 .96.36.33.36.33.89t-.33.88q-.33.35-.96.35-.64 0-.96-.35-.32-.35-.32-.88zm11.07 16.28q-2.57 0-4.2-1.7-1.6-1.69-1.6-4.53v-.4q0-1.88.7-3.36.73-1.49 2.02-2.32 1.3-.84 2.81-.84 2.48 0 3.85 1.63t1.37 4.66v.9h-8.6q.06 1.88 1.1 3.04 1.05 1.15 2.67 1.15 1.15 0 1.95-.47t1.39-1.24l1.32 1.03q-1.59 2.45-4.78 2.45zm-.27-11.37q-1.3 0-2.2.96-.89.95-1.1 2.67h6.35v-.16q-.1-1.65-.89-2.56-.8-.91-2.16-.91zm9.78-1.55.07 1.6q1.45-1.83 3.8-1.83 4.01 0 4.05 4.53v8.38h-2.17v-8.39q-.01-1.37-.63-2.03-.61-.65-1.91-.65-1.06 0-1.85.56-.8.56-1.25 1.48v9.03h-2.16v-12.68zm14.13-3.07v3.07h2.37v1.68h-2.37v7.86q0 .76.32 1.15.31.38 1.07.38.38 0 1.04-.15v1.76q-.86.24-1.67.24-1.45 0-2.19-.88t-.74-2.5v-7.86h-2.3v-1.68h2.3v-3.07z" aria-label="The comfy Fediverse client" font-family="Roboto" font-size="24" style="-inkscape-font-specification:Roboto"/></g></svg>